<?xml version="1.0" encoding="utf-8"?>
<!-- Generator: Adobe Illustrator 22.1.0, SVG Export Plug-In . SVG Version: 6.00 Build 0)  -->
<svg version="1.1" id="Layer_1" xmlns="http://www.w3.org/2000/svg" xmlns:xlink="http://www.w3.org/1999/xlink" x="0px" y="0px"
	 viewBox="0 0 1000 1000" style="enable-background:new 0 0 1000 1000;" xml:space="preserve">
<style type="text/css">
	.st0{fill:#000E2B;}
	.st1{fill:#F2EFF2;}
	.st2{fill:#0555B4;}
	.st3{fill:#CE202D;}
</style>
<rect class="st0" width="1000" height="1000"/>
<g>
	<g>
		<path class="st1" d="M673,499.7c0,95.8-77.7,173.5-173.5,173.5S326,595.5,326,499.7s77.7-173.5,173.5-173.5
			C595.4,326.3,673,403.9,673,499.7"/>
	</g>
	<g>
		<g>
			<g>
				<path class="st2" d="M499.6,261.3c-131.7,0-238.4,106.7-238.4,238.4s106.7,238.4,238.4,238.4S738,631.4,738,499.7
					C738,368.1,631.3,261.3,499.6,261.3 M499.6,658.7c-87.8,0-159-71.2-159-159s71.2-159,159-159s159,71.2,159,159
					C658.6,587.6,587.4,658.7,499.6,658.7"/>
			</g>
		</g>
		<g>
			<path class="st3" d="M578.9,499.7c0,43.8-35.5,79.4-79.4,79.4c-43.8,0-79.4-35.5-79.4-79.4c0-43.8,35.5-79.4,79.4-79.4
				C543.4,420.4,578.9,455.9,578.9,499.7"/>
		</g>
	</g>
	<g>
		<path class="st1" d="M658.6,358.6c0,9.8-8,17.8-17.8,17.8s-17.8-8-17.8-17.8s8-17.8,17.8-17.8
			C650.6,340.8,658.6,348.8,658.6,358.6"/>
	</g>
</g>
</svg>
