<?xml version="1.0" encoding="utf-8"?>
<!-- Generator: Adobe Illustrator 22.1.0, SVG Export Plug-In . SVG Version: 6.00 Build 0)  -->
<svg version="1.1" id="Layer_1" xmlns="http://www.w3.org/2000/svg" xmlns:xlink="http://www.w3.org/1999/xlink" x="0px" y="0px"
	 viewBox="0 0 2248 2248" style="enable-background:new 0 0 2248 2248;" xml:space="preserve">
<style type="text/css">
	.st0{clip-path:url(#SVGID_2_);}
	.st1{fill:#E62242;}
	.st2{fill:#FFFFFF;}
</style>
<rect width="2248" height="2248"/>
<g>
	<g>
		<g>
			<defs>
				<rect id="SVGID_1_" width="2248" height="1500"/>
			</defs>
			<clipPath id="SVGID_2_">
				<use xlink:href="#SVGID_1_"  style="overflow:visible;"/>
			</clipPath>
			<g class="st0">
				<path class="st1" d="M2755.9,906.9c-5.4-12.6-10.4-25.4-15.3-38.2c-6.2-16.2-11.3-32.7-18.8-48.6c-6.6-14-13.6-27.8-23.9-40.5
					c-11.5-14.2-25.1-26.6-41.4-37c-9.1-5.8-19.9-9.3-30.8-12.2c-17.3-4.5-35.1-4.9-53.1-4.2c-27.2,1.1-54.4,1.3-81.7,0.5
					c-10.8-0.3-21.5-2.2-31.6-5.3c-17.2-5.3-25.5-16.5-30-30.5c-2.8-8.7-2.4-17.5-3.2-26.1c-1.2-12.2-1.1-24.5-0.6-36.6
					c0.6-15.2-0.1-30.5,1.3-45.6c2.8-31,3.3-62,3-93.1c-0.1-15.2-0.6-30.4-3-45.5c-1.4-8.7-2.1-17.5-3.9-26.1
					c-2-9.8-4.3-19.6-6.9-29.4c-4-14.5-9.6-28.5-14.9-42.6c-2.4-6.3-6.1-12.2-9.6-18.1c-9-15.6-19.1-30.6-31-44.9
					c-10.8-13-23.3-24.7-36.7-35.9c-11.1-9.3-23.4-17.7-36.3-25.3c-4.8-2.9-10.2-5.4-15.3-8.1c-2.8-1.5-6.2-1.2-9-2.4
					c-0.1-1.9-1.6-2.6-3.5-3.4c-35.7-15.3-73.7-22.1-114-20.8c-29.1,0.9-56.9,6.7-83.8,15.8c-2.9,1-5.9,2-8,4.1
					c-8,1.7-15.3,4.5-22.4,8.1c-12.9,6.5-26.3,12.3-38.2,20.1c-16.6,10.8-33.1,21.6-47.1,34.9c-7,6.6-13.6,13.6-20.6,20.2
					c-3.2,3-5.4,6.6-7.5,10.3c-4,2-5.8,5.3-8.1,8.4c-10.6,14.7-20.9,29.4-28.9,45.1c-8.8,17.4-16.5,35.1-22.6,53.3
					c-3.7,11.3-7.1,22.8-10,34.3c-4.4,17.2-7.9,34.6-10.4,52.1c-2,13.7-3.3,27.5-4.9,41.2c-4.1,36.3-6.1,72.7-9.1,109.1
					c-2.1,25.4-3.7,50.8-5.6,76.2c-1.2,16.5-3.3,33.1-3.7,49.7c-0.8,12.8-1.7,25.5-2.5,38.3c-0.5,8.4-0.7,16.8-1.8,25.2
					c-2,14.5-4.9,29.2-12.9,42.2c-5.7,9.2-11.7,19.2-24.5,23.9c-6,2.2-12.2,3.8-19,4.2c-21.5,1.4-39-5.7-55.1-16.3
					c-4.3-2.8-6.6-7-10.2-10.2c-16.1-14.6-28.2-31.2-37.3-49.3c-5.8-11.6-11.3-23.4-15.7-35.5c-4.9-13.4-10.6-26.6-15.2-40
					c-3-8.8-7.1-17.4-10.8-26.1c-4-9.4-9.2-18.5-14.2-27.6c-4.9-8.9-11.5-17.1-18.2-25.2c-7-8.5-16.1-15.6-25.9-22
					c-15.5-10.1-32.8-16.8-52.4-20.5c-15.9-2.9-31.1-2.2-46.3,1.1c-7.7,1.7-14.4,5-20.1,9.6c-7.3,2.3-12.1,7.1-17.4,11.4
					c-14.5,12-24.7,26.7-37.1,40.1c-6.8,7.3-12.8,15.2-20.2,22.1c-14,13-30.4,23.2-51.9,26.6c-9.6,1.5-19.1,0.8-28.5-0.5
					c-16.4-2.3-31.4-7.5-45.2-15.1c-20.6-11.4-38.2-25.6-55.7-39.8c-14-11.4-28.1-23-44.1-32.5c-21.5-12.6-44.9-22.1-72.6-20.9
					c-3.1,0.2-6.4-0.2-9.3,1.4c-12.2-0.2-22.6,4.3-32.9,8.8c-18.9,8.2-33.5,20.4-45.3,34.8c-6.7,8.2-12.9,16.8-16.5,26.4
					c-10,19.9-15.4,40.6-17.7,62c-0.1,1.2,0,2.4,0,3.6c-1.6,13.6-2,27.2-2.2,40.8c-0.3,14.1-0.2,28.1-1.6,42
					c-1.7,17.1-3.4,34.4-10,50.8c-5.5,13.5-13.8,25.7-28.3,34c-8.6,4.9-18.2,8.4-29.4,8.2c-10.6-0.2-21.1-0.6-31.1-3.7
					c-11.2-3.4-22.2-7.1-31.5-13.4c-3.7-2.6-8.1-4.6-11.7-7.2c-9.4-6.7-17.5-14.4-25.3-22.4c-7-7.2-14.4-14.1-20.6-21.8
					c-11-13.5-20.9-27.5-29.7-42.1c-4.3-7.2-8.5-14.4-12.4-21.8c-6.4-12.2-11.4-24.7-16.3-37.2c-0.8-2.1-1.8-4.2-2.7-6.2
					c0.4-2.7-1.1-5.1-1.9-7.6c-5.9-18.6-11.2-37.3-15.3-56.2c-5-23.2-9.3-46.5-12.7-70c-2.2-14.7-3.2-29.5-5.3-44.2
					c-3.1-21.7-4.9-43.4-7.2-65.2c-2.4-22.5-3.9-45.2-8.5-67.5c-3-15-5.8-29.9-9.8-44.8c-3.5-12.5-6.4-25-10.2-37.5
					c-0.8-2.6-1.4-5.5-4.3-7.3c-5.4-21.9-15.4-42.5-26.7-62.7c-12.7-23-28.3-44.6-46.5-65c-9.7-10.9-20.5-20.8-31.6-30.6
					c-2.2-2-4.6-3.6-7.5-4.6c-4.6-7.1-12.3-11.9-19.4-16.9c-30.8-21.7-65.5-37.9-103.9-48.6c-33.6-9.4-68.2-13.3-103.6-10.3
					c-17.8,1.5-35.3,4.7-51.2,11.9c-16.7,7.6-31,17.4-41.9,30.4c-12.7,15.3-20.3,32.2-25.7,50.1c-6.9,23.3-9.4,46.9-11,70.7
					c-1.7,24.6-1.2,49.3-0.9,74c0.3,28.6,1.3,57.3,3.7,85.9c2.2,27.2,4.9,54.3,9,81.4c3.3,21.8,7.5,43.6,11.9,65.3
					c5.9,28.4,12.4,56.7,19.6,84.9c5.8,22.7,12.3,45.3,19.9,67.8c1.9,5.6,3.7,11.2,5.5,16.8c2.7,12,8.6,23.3,12.5,35
					c2.6,7.7,6,15.2,9.1,22.7c4.8,11.7,10,23.3,14.4,35.2c4.2,11.1,10,21.8,14.3,32.8c3,7.6,6.7,15.1,8.5,22.9
					c2.4,10.3,2.4,20.6-3,30.5c-4.9,9.1-13,14.9-24.5,18.4c-16.2,4.8-32.1,4.2-48.2,0.6c-8.7-2-15.2-6.9-22.4-11.1
					c-11.2-6.6-17.6-16.5-25.3-25.5c-10.2-11.7-19.5-23.9-29.3-35.9c-7.8-9.7-15.7-19.3-23.7-28.9c-7.8-9.1-15.6-18.4-23.6-27.4
					c-6.6-7.5-13.2-14.9-19.7-22.4c-7.3-8.3-15.2-16.2-22.1-24.6c-4.3-5.3-9.1-10.4-14.5-15c-9.6-8.2-18.6-16.9-30.2-23.6
					c-6-3.5-11.9-7-18-10.3c-9.6-5.3-19.9-8.9-31.2-11.3c-11.7-2.5-23.2-2.7-34.8-0.8c-10.4,1.7-19.8,5.4-28.5,10.5
					c-17.1,10.1-25.5,24.3-31.7,40.4c-7.8,20.2-6.2,40.8-5.4,61.3c0.4,10.1,1.8,20.3,2.9,30.5c1.2,11.5,3.5,22.9,5.5,34.4
					c0.6,3.6,0.5,7.2,1.2,10.7c3.8,20.9,7.9,41.9,11.5,62.9c2,11.1,4.9,22,7,33.1c3.3,17.1,8.4,33.9,12.8,51
					c21.7,85.3-76.2,68.3-123.7,68.3c0-210.9,0-421.9,0-632.8c6.6,6.1,13.2,12.2,19.9,18.4c18.6,16.9,39.8,29.9,67.5,34.3
					c8.8,1.4,17.6,1.4,26.4,0.6c17.7-1.6,33.7-6.9,46.4-17.4c7.9-6.5,15.1-13.6,20.3-21.8c8.6-13.7,13.8-28.4,18.6-43.3
					c5.4-17.1,8.5-34.5,11.9-51.8c4.7-24,6-48.2,3-72.3c-2.4-20.2-10.1-39.1-22.7-57c-12.3-17.3-29.5-30.7-46.2-44.6
					c-6.2-5.1-12.4-10.3-19.3-14.7c-13.8-8.5-29.1-13.9-47-11.2c-1.7,0.2-3.4,0.6-4.9,1.2c-22,8.1-39.2,20.9-52.9,36.9
					c-7,8.2-13.1,16.8-16.7,26.4c-0.6,1.7-2.2,2-3.8,2.4c0-179.7,0-359.3,0-539c14.7,0,29.4,0,44.2,0c0,11,0,22.1-0.1,33
					c-0.1,23.6,2.8,47.1,6.8,70.6c4.2,25.2,10.4,50,17,74.8c4.9,18.1,10.3,36.3,19.5,53.3c7.5,13.8,17.1,26.2,30.9,36.7
					c12.8,9.7,26.9,17.2,43.2,22.1c21.6,6.3,41.2,3.2,57.5-10c6-4.8,10.8-10.8,14.8-17C-7.2,0.2-2.1-12.9,1.8-25.9
					c3.7-12.2,8-24.3,10.7-36.7c2-9,5.4-17.8,7.7-26.7c4.9-18.5,10-37,12.1-56c0.8-7.1,2.1-14.3,3-21.4c2.2-17.6,1.8-35.2,1.2-52.8
					c-0.3-8.6-1.9-17.1-4.1-25.5c-0.5-2-0.9-3.9-0.1-6c66.7,0,133.4,0,200.2,0c1.7,3.8,4.5,7,7.3,10.4c3.5,4.2,6,9.1,9.7,13.3
					c10.8,12.7,22.7,24.6,36,35.5c21.3,17.5,44.5,33.1,71.4,44.7c25.8,11.2,52.9,19.7,81.9,23.9c20.9,3,42,3.4,63,2
					c12.5-0.8,25.1-2.6,37.3-5.7c15.9-4.1,31.7-8.4,46.1-15.3c15.8-7.5,31.2-15.3,44.7-25.8c12.7-10,25.7-19.7,37.3-30.6
					c16.3-15.3,29.6-32.3,40.9-50.3c0.5-0.7,0.9-1.4,1.4-2.1c71.6,0,143.3,0,214.9,0c2,8.6,4,17.2,6,25.9c0.1,0.5,0.1,1.1,0.1,1.5
					c12.3,44.4,46.3,131.5,131.2,172.9c3,1.4,6.2,2.8,9.4,4c16.9,6.7,34.4,12,52.5,15.4c7.5,1.2,15,2.3,22.7,3.2
					c1.1,0.1,2.2,0.2,3.3,0.3c12.7,1.1,25.3,2.1,38.1,2.1c13.6,0,26.8-1.7,40.1-3.4c17.4-2.1,34.4-6,51-10.6
					c13.4-3.7,26.2-8.9,38.6-14.6c16.5-7.6,32.1-16.2,46.3-26.1c11.8-8.1,22.1-17.6,33-26.5c0,0,32.1-27.3,61.4-89.9
					c0.9-2,1.5-3.1,2.6-5.8c6.4-14.4,12.7-30.4,18.5-48.3c82.9,0,165.8,0,248.7,0h79.5c60.3,0,120.6,0,180.9,0
					c86.4,0,172.7,0,259.1,0c-0.5,1.4-1.3,2.6-1.5,4c-2.1,12.8-5.1,25.7-4.7,38.8c0.4,14.4,0.1,28.9,0.6,43.3
					c0.3,10.2,3.3,20.2,4.7,30.3c1.8,12.3,5.4,24.3,8.7,36.3c3.1,11.6,6.2,23.4,10.8,34.8c3.1,7.8,5.3,15.9,9.4,23.3
					c5.1,9.3,10.8,18.4,18.6,26.4c5.3,5.4,8.5,11.5,11.5,17.9c5.9,12.2,11.5,24.7,19,36.4c7.7,11.9,15.8,23.4,25.3,34.3
					c12.7,14.4,27,27.9,43.3,39.9c8.9,6.6,18.1,12.8,27.7,18.5c20.3,12.2,42.2,21.9,67.4,25.2c27,3.6,52.6-0.6,76.3-11.9
					c14.6-7,26.6-16.5,36.7-27.3c8.6-9.1,15.4-19.4,20.9-30.2c6.2-12.2,11.2-24.9,14.4-37.8c2.6-10.7,4.3-21.6,5.4-32.6
					c1.5-15.4,1.6-30.8,0.9-46.2c-0.5-11.6-2.8-23-4.4-34.6c-2.1-14.7-7-29-10.6-43.5c-1.2-4.8-3.9-9.5-5.5-14.3
					c-4.2-11.9-10.2-23.3-15.9-34.8c-6-12.1-13-23.7-20.1-35.4c-8.1-13.3-15.1-26.9-21.6-40.7c-2.8-5.9-6.2-11.8-11.2-16.8
					c-0.9-1-1.4-2.1-1.6-3.3c71.2,0,142.2,0,213.4,0c0,391,0,782,0,1173C2760.7,917.5,2758.2,912.2,2755.9,906.9z"/>
				<path class="st1" d="M1792.7,1133.5c5.4,0.4,10.6,1.5,15.7,2.7c5,1.2,8.8,3.7,11.5,7.1c6.9,8.8,12.3,18.1,11.4,29.2
					c-0.5,5.8-0.7,11.4-2.8,17.1c-4.8,13.1-11.5,25-27.1,32c-1.5,0.7-3.3,1.2-2.5,3.1c-8.8,0-17.7,0-26.5,0c0.8-3.3-3-3.2-4.9-4.1
					c-6.8-2.7-11.2-7.1-13.8-12.7c-1.8-3.9-3-8-3.2-12.2c-0.4-17.7,3.3-34.5,15.1-49.8C1772,1137.8,1780.2,1132.7,1792.7,1133.5z"/>
				<path class="st1" d="M1357.3,945.4c12.6-5.7,26-7.1,38.8-2.6c21.3,7.3,32.7,22,35.6,40.2c2.3,14.6,2.7,29.4-2.1,44
					c-3.9,11.8-8.7,22.7-20.7,30.8c-9.3,6.3-20.1,8.8-31.4,7.2c-14-2-25.1-8.2-33.1-18.3c-11-13.9-15.3-29.2-15.4-45.5
					c-0.1-6.8,0.3-13.6,1.8-20.3C1334.1,966.3,1340.2,953.2,1357.3,945.4z"/>
				<path class="st1" d="M2474.8,982.2c6-10.1,12.8-19.6,24.6-26.2c7.8-4.4,16.1-5.4,25-5.3c6.1,0.1,10.8,1.9,14.5,5.8
					c0.4,0.5,1.3,0.5,1.9,0.8c6.3,2.9,11.5,7,14.6,12.2c6.8,11.2,12,22.7,11.3,35.6c-0.4,7.4-0.9,14.6-3,21.9
					c-4,14.3-12.3,26-26.2,35c-4.8,3.1-10.1,5.7-16.1,6.9c-26.2,5.1-45.6-7.4-52.5-26.5c-2.7-7.4-0.9-15.1-1.2-22.7
					C2466.5,1006.8,2467.8,994.2,2474.8,982.2z"/>
				<path class="st1" d="M974.6,1101.6c13.3-1.5,26.4,0,38.8,4.5c16.1,5.9,26.6,16.4,34.8,28.8c1.2,1.8,1.6,3.8,1.6,5.8
					c0,2.8,0,5.6,0,8.9c1.6,12.6-4.2,23.3-16.3,32c-3.5,2.5-7.4,4.9-11.9,5.6c-12.5,2-23.5-1.1-33.2-7.5
					c-10-6.6-18.2-14.5-25.1-23.3c-8.7-11.3-14.1-23.3-10.5-36.9C955.3,1110.3,963.8,1102.8,974.6,1101.6z"/>
			</g>
		</g>
	</g>
</g>
<path class="st2" d="M1447.8,1481c0,90-31.7,167-95.1,231c-63.4,64-139.6,96-228.5,96H800.2V440H1124c89.9,0,166.3,32,229.2,96.1
	c62.9,64,94.4,140.8,94.4,230.3L1447.8,1481L1447.8,1481z M1007.2,1604h123.4c32.7,0,60.1-11.9,82.6-35.7
	c22.2-23.8,33.4-51.6,33.4-83.6V769.5c0-32.5-11.4-60.3-34.2-83.6c-22.8-23.2-50-34.8-81.7-34.8h-123.4V1604z"/>
</svg>
