<?xml version="1.0" encoding="utf-8"?>
<!-- Generator: Adobe Illustrator 22.1.0, SVG Export Plug-In . SVG Version: 6.00 Build 0)  -->
<svg version="1.1" id="Layer_1" xmlns="http://www.w3.org/2000/svg" xmlns:xlink="http://www.w3.org/1999/xlink" x="0px" y="0px"
	 viewBox="0 0 70.7 34" style="enable-background:new 0 0 70.7 34;" xml:space="preserve">
<style type="text/css">
	.st0{fill:#FFFFFF;}
</style>
<g>
	<path class="st0" d="M7.7,7.6C6.9,8.4,5.9,8.8,4.6,8.8S2.4,8.4,1.6,7.6C0.7,6.8,0.3,5.8,0.3,4.7c0-1.1,0.4-2.1,1.2-2.9
		C2.4,1,3.4,0.6,4.6,0.6S6.9,1,7.7,1.8c0.8,0.8,1.2,1.8,1.2,2.9C8.9,5.8,8.5,6.8,7.7,7.6z M8.5,33.4H0.8V11.2h7.7L8.5,33.4L8.5,33.4
		z M16.4,28.8c-3.4-3.3-5.1-7.2-5.1-11.8s1.7-8.5,5.1-11.8c3.4-3.3,7.6-4.9,12.5-4.9c1.7,0,3.3,0.2,4.8,0.7c1.5,0.4,2.8,1,3.8,1.6
		c1,0.6,1.9,1.2,2.6,1.9C40.8,5,41.4,5.5,41.7,6l0.5,0.6L37,12c-0.1-0.1-0.2-0.3-0.4-0.5s-0.5-0.5-1-1c-0.5-0.5-1.1-0.9-1.7-1.2
		c-0.6-0.4-1.3-0.7-2.3-1C30.8,8.1,29.8,8,28.9,8c-2.6,0-4.7,0.9-6.5,2.6c-1.7,1.7-2.6,3.9-2.6,6.5s0.9,4.7,2.6,6.5
		c1.7,1.7,3.9,2.6,6.5,2.6c1.1,0,2.1-0.2,3-0.5c0.9-0.3,1.5-0.7,1.9-1l0.5-0.5v-3.4h-5v-5.4h13.6v12.2c-0.1,0.2-0.3,0.4-0.6,0.7
		c-0.3,0.3-0.9,0.8-1.7,1.5c-0.9,0.7-1.8,1.4-2.8,1.9c-1,0.6-2.3,1.1-3.9,1.5c-1.6,0.4-3.2,0.7-4.9,0.7
		C23.9,33.7,19.8,32.1,16.4,28.8z M60.1,21.6c-0.5-0.4-1.2-0.8-2.1-1.1c-0.9-0.3-1.8-0.6-2.9-0.9S53,18.9,52,18.5
		c-1-0.5-2-1.1-2.8-1.7C48.3,16,47.6,15.1,47,14c-0.5-1.1-0.8-2.5-0.8-4c0-2.6,1.1-4.9,3.4-6.8c2.2-1.9,5.1-2.9,8.6-2.9
		c1.4,0,2.8,0.2,4.1,0.5c1.3,0.3,2.3,0.7,3.1,1.1c0.8,0.4,1.5,0.9,2.2,1.3s1,0.8,1.3,1.2l0.4,0.4l-5,5.2c-0.1-0.2-0.4-0.4-0.7-0.7
		c-0.3-0.3-0.9-0.6-1.8-1.1c-0.9-0.5-1.8-0.7-2.7-0.7c-1,0-1.8,0.3-2.4,0.8c-0.6,0.5-1,1.2-1,1.9c0,0.6,0.3,1.1,0.8,1.5
		c0.5,0.4,1.2,0.8,2.1,1.1c0.9,0.3,1.8,0.6,2.8,0.9c1,0.3,2.1,0.7,3.1,1.2c1.1,0.5,2,1.1,2.9,1.7c0.9,0.7,1.6,1.6,2.1,2.7
		c0.5,1.1,0.8,2.5,0.8,4c0,2.9-1.2,5.4-3.5,7.4c-2.3,2-5.4,3-9.2,3c-1.6,0-3.1-0.2-4.5-0.6c-1.4-0.4-2.6-0.8-3.6-1.4
		c-0.9-0.5-1.8-1.1-2.5-1.6s-1.2-1-1.6-1.4l-0.5-0.6l5-5.2c0.1,0.1,0.2,0.2,0.3,0.4c0.2,0.1,0.5,0.4,0.9,0.8c0.4,0.4,0.9,0.7,1.4,1
		c0.5,0.3,1.1,0.6,1.9,0.8c0.8,0.2,1.5,0.4,2.3,0.4c1.2,0,2.2-0.3,2.9-1c0.8-0.7,1.1-1.5,1.1-2.4C60.9,22.5,60.6,22,60.1,21.6z"/>
</g>
</svg>
