<?xml version="1.0" encoding="utf-8"?>
<!-- Generator: Adobe Illustrator 22.1.0, SVG Export Plug-In . SVG Version: 6.00 Build 0)  -->
<svg version="1.1" id="Layer_1" xmlns="http://www.w3.org/2000/svg" xmlns:xlink="http://www.w3.org/1999/xlink" x="0px" y="0px"
	 viewBox="0 0 950 950" style="enable-background:new 0 0 950 950;" xml:space="preserve">
<style type="text/css">
	.st0{fill:#EABA00;}
	.st1{fill:#FFFFFF;}
</style>
<rect class="st0" width="950" height="950"/>
<path class="st1" d="M661.4,437.7c-1.7,14.2-5.4,27-11.3,38.7c-12.1,24.3-31.4,42.2-57.5,53.7l-0.6,0.2c-0.4,0.2-1,0.4-1.5,0.6
	c-0.4,0.2-0.8,0.4-1,0.8c-0.2,0.2-0.4,0.2-0.6,0.4c-0.8,0.6-1,1.7-0.8,2.5l15.7,41.6h-48.5c-1,0-2.1,0.8-2.3,2.1
	c-0.2,1,0.6,2.3,1.7,2.5l55.8,13.4l12.8,34.1c2.5,6.5-2.3,13.4-9.2,13.4c-32.8,0-65.4,0-98.3,0.2h-1.5h-1.7l-3.3-9.4l46,0.2
	c1,0,2.1-0.8,2.3-2.1c0.2-1-0.6-2.3-1.7-2.5l-37.4-9l-39.3-9.4c-1.5-0.4-1.3-2.7,0.4-2.7h20.9c0,0,0,0,0-0.2l-19.2-55
	c-0.4-0.8-1.3-1.5-2.1-1.5h-43.5c-1,0-2.1,0.8-2.3,1.9l-14,77.8c-1.3,6.5-6.9,11.3-13.6,11.3H301.1l0.8-5.4
	c0.8-5.4,1.9-10.9,2.7-16.3c3.1-18,7.1-40.4,10.2-58.3l-33.7-7.9c-1.7-0.4-1.5-2.9,0.4-2.9l33.7,0.2l0,0l88.4,0.2
	c1,0,2.1-0.8,2.3-2.1c0.2-1-0.6-2.3-1.7-2.5l-83.2-20.3c1.7-9.6,2.5-14.6,4.4-24.3c1.9-10,3.6-20.3,5.2-30.3
	c1.7-10.2,3.6-20.5,5.4-30.7c0.4-2.1,1.5-8.4,1.5-8.4h64c1,0,2.1-0.8,2.3-2.1c0.2-1-0.6-2.3-1.7-2.5l-62.7-15.1
	c-0.2,0-0.2-0.2-0.4-0.2l-28.2-6.7h0.2l-14.4-3.6c-1.7-0.4-1.5-2.9,0.4-2.9l46.6,0.2c0.8-4.4,1.7-9,2.5-13.4
	c1.5-7.9,2.7-15.9,4.2-23.6l0.8-4.8h110.2c1,0,2.1-0.8,2.3-2.1c0.2-1-0.6-2.3-1.7-2.5l-18.8-4.6l-161.8-35.8
	c-1.5-0.4-1.5-2.1-0.4-2.7l-0.8-0.2h190.7c0,0,0.2,0,0.4,0h10.2c18.6,0,37.4,0,56,0c25.5,0,47.3,5.2,66.9,15.9
	c23.6,12.8,40.1,30.7,49.6,53.3h-78.8c-1,0-2.1,0.8-2.3,2.1c-0.2,1,0.6,2.3,1.7,2.5l86.4,20.7C662.8,414.1,662.8,425.1,661.4,437.7z
	 M573.1,441.7c0.2-1-0.6-2.3-1.7-2.5l-51.9-12.5l-1.5-0.4l0,0l0,0l0,0c-1.5-0.4-1.3-2.7,0.4-2.7h25.1c-1.3-10.5-7.7-18.2-17.6-20.7
	c-3.6-0.8-7.7-1.5-12.3-1.5c-7.3,0-14.4,0-21.7,0h-30.5c-1,0-2.1,0.8-2.3,1.9l-10,57.3c0,0.6,0,1.3,0.4,1.7c0.4,0.4,0.8,0.8,1.5,0.8
	c0.4,0,0.8,0.2,1.3,0.2c0.8,0.2,1.5,0.2,2.3,0.2h8.8c6.3,0,12.5,0,18.8,0c8.4,0,16.7,0,25.1,0c3.3,0,6.9-0.4,10.7-1.5
	c10-2.7,18-9.4,22.4-18.6h30.7C572.1,443.5,572.9,442.7,573.1,441.7z M658.9,314.5H652l-1.7,12.1h3.8l0.6-4.6h1c0.4,0,0.8,0.2,1,0.4
	s0.2,0.6,0.2,1c0,0.2,0,0.2,0,0.6c0,0.4,0,0.6,0,0.8c0,0.6,0.2,1,0.6,1.3c0.4,0.2,1,0.4,1.7,0.4c0.8,0,1.7-0.2,2.3-0.4l0.2-0.8
	c-0.4-0.2-0.6-0.6-0.6-1.3c0-0.2,0-0.2,0-0.6v-0.2c0-0.2,0-0.2,0-0.4c0-0.6-0.2-1-0.4-1.5c-0.2-0.4-0.6-0.6-1.3-0.8l0,0
	c0.4,0,0.8-0.2,1.3-0.6c0.4-0.2,0.6-0.6,1-1.3c0.2-0.4,0.4-1,0.4-1.7c0-0.6-0.2-1-0.4-1.5c-0.2-0.4-0.6-0.6-1-0.8
	C659.9,314.7,659.5,314.5,658.9,314.5z M657.2,317.5c0.2,0,0.4,0,0.6,0.2c0.2,0.2,0.2,0.4,0.2,0.6v0.4c0,0.2-0.2,0.4-0.4,0.6
	c-0.2,0.2-0.4,0.2-0.6,0.2h-1.9l0.2-2.1H657.2z M656.2,309.1c-6.5,0-11.9,5.2-11.9,11.9c0,6.5,5.2,11.9,11.9,11.9
	c6.5,0,11.9-5.2,11.9-11.9C667.9,314.3,662.6,309.1,656.2,309.1 M656.2,305.1c8.8,0,15.9,7.1,15.9,15.9c0,8.8-7.1,15.9-15.9,15.9
	c-8.8,0-15.9-7.1-15.9-15.9C640.3,312.2,647.4,305.1,656.2,305.1L656.2,305.1z"/>
</svg>
